<mxfile host="Electron" modified="2023-08-20T20:02:53.019Z" agent="Mozilla/5.0 (Macintosh; Intel Mac OS X 10_15_7) AppleWebKit/537.36 (KHTML, like Gecko) draw.io/21.6.8 Chrome/114.0.5735.289 Electron/25.5.0 Safari/537.36" etag="5oeJrdY4jBpUNCsFbf4b" version="21.6.8" type="device">
  <diagram id="gEhcEn96w5jxbxv-_7ja" name="Strona-1">
    <mxGraphModel dx="954" dy="674" grid="1" gridSize="10" guides="1" tooltips="1" connect="1" arrows="1" fold="1" page="1" pageScale="1" pageWidth="827" pageHeight="1169" math="0" shadow="0">
      <root>
        <mxCell id="0" />
        <mxCell id="1" parent="0" />
        <mxCell id="hMOcAWikp1ucdJKASKBj-1" value="Master 1" style="sketch=0;aspect=fixed;html=1;points=[];align=center;image;fontSize=12;image=img/lib/mscae/Cache_Redis_Product.svg;labelBackgroundColor=none;fontColor=#666666;fontStyle=1" parent="1" vertex="1">
          <mxGeometry x="270" y="210" width="50" height="42" as="geometry" />
        </mxCell>
        <mxCell id="hMOcAWikp1ucdJKASKBj-3" value="&lt;div&gt;Slave 1&lt;/div&gt;&lt;div&gt;&lt;br&gt;&lt;/div&gt;" style="sketch=0;aspect=fixed;html=1;points=[];align=center;image;fontSize=12;image=img/lib/mscae/Cache_Redis_Product.svg;imageBackground=none;fillStyle=auto;imageBorder=none;labelBackgroundColor=none;fontColor=#666666;fontStyle=1" parent="1" vertex="1">
          <mxGeometry x="480" y="210" width="50" height="42" as="geometry" />
        </mxCell>
        <mxCell id="hMOcAWikp1ucdJKASKBj-7" value="&lt;div&gt;Client&lt;/div&gt;&lt;div&gt;&lt;br&gt;&lt;/div&gt;" style="points=[[0.35,0,0],[0.98,0.51,0],[1,0.71,0],[0.67,1,0],[0,0.795,0],[0,0.65,0]];verticalLabelPosition=bottom;sketch=0;html=1;verticalAlign=top;aspect=fixed;align=center;pointerEvents=1;shape=mxgraph.cisco19.user;fillColor=#99CCFF;strokeColor=none;labelBackgroundColor=none;fillStyle=auto;fontColor=#666666;fontStyle=1" parent="1" vertex="1">
          <mxGeometry x="140" y="290" width="50" height="50" as="geometry" />
        </mxCell>
        <mxCell id="hMOcAWikp1ucdJKASKBj-8" value="" style="endArrow=classic;html=1;rounded=0;fontColor=#666666;fontStyle=1;strokeColor=#666666;" parent="1" edge="1">
          <mxGeometry width="50" height="50" relative="1" as="geometry">
            <mxPoint x="200" y="318" as="sourcePoint" />
            <mxPoint x="250" y="318" as="targetPoint" />
          </mxGeometry>
        </mxCell>
        <mxCell id="hMOcAWikp1ucdJKASKBj-10" value="" style="endArrow=classic;html=1;rounded=0;fontColor=#666666;fontStyle=1;strokeColor=#666666;" parent="1" edge="1">
          <mxGeometry width="50" height="50" relative="1" as="geometry">
            <mxPoint x="340" y="400" as="sourcePoint" />
            <mxPoint x="460" y="400" as="targetPoint" />
          </mxGeometry>
        </mxCell>
        <mxCell id="hMOcAWikp1ucdJKASKBj-14" value="replication" style="edgeLabel;html=1;align=center;verticalAlign=middle;resizable=0;points=[];fontColor=#666666;labelBackgroundColor=none;fontStyle=1" parent="hMOcAWikp1ucdJKASKBj-10" vertex="1" connectable="0">
          <mxGeometry x="-0.1463" y="3" relative="1" as="geometry">
            <mxPoint x="1" y="-10" as="offset" />
          </mxGeometry>
        </mxCell>
        <mxCell id="hMOcAWikp1ucdJKASKBj-18" value="Master 2" style="sketch=0;aspect=fixed;html=1;points=[];align=center;image;fontSize=12;image=img/lib/mscae/Cache_Redis_Product.svg;labelBackgroundColor=none;fontColor=#666666;fontStyle=1" parent="1" vertex="1">
          <mxGeometry x="270" y="288" width="50" height="42" as="geometry" />
        </mxCell>
        <mxCell id="hMOcAWikp1ucdJKASKBj-19" value="Master 3" style="sketch=0;aspect=fixed;html=1;points=[];align=center;image;fontSize=12;image=img/lib/mscae/Cache_Redis_Product.svg;labelBackgroundColor=none;fontColor=#666666;fontStyle=1" parent="1" vertex="1">
          <mxGeometry x="270" y="370" width="50" height="42" as="geometry" />
        </mxCell>
        <mxCell id="hMOcAWikp1ucdJKASKBj-20" value="" style="endArrow=classic;html=1;rounded=0;fontColor=#666666;fontStyle=1;strokeColor=#666666;" parent="1" edge="1">
          <mxGeometry width="50" height="50" relative="1" as="geometry">
            <mxPoint x="340" y="320" as="sourcePoint" />
            <mxPoint x="460" y="320" as="targetPoint" />
          </mxGeometry>
        </mxCell>
        <mxCell id="hMOcAWikp1ucdJKASKBj-21" value="replication" style="edgeLabel;html=1;align=center;verticalAlign=middle;resizable=0;points=[];fontColor=#666666;labelBackgroundColor=none;fontStyle=1" parent="hMOcAWikp1ucdJKASKBj-20" vertex="1" connectable="0">
          <mxGeometry x="-0.1463" y="3" relative="1" as="geometry">
            <mxPoint x="1" y="-10" as="offset" />
          </mxGeometry>
        </mxCell>
        <mxCell id="hMOcAWikp1ucdJKASKBj-22" value="" style="endArrow=classic;html=1;rounded=0;fontColor=#666666;fontStyle=1;strokeColor=#666666;" parent="1" edge="1">
          <mxGeometry width="50" height="50" relative="1" as="geometry">
            <mxPoint x="340" y="240" as="sourcePoint" />
            <mxPoint x="460" y="240" as="targetPoint" />
          </mxGeometry>
        </mxCell>
        <mxCell id="hMOcAWikp1ucdJKASKBj-23" value="replication" style="edgeLabel;html=1;align=center;verticalAlign=middle;resizable=0;points=[];fontColor=#666666;labelBackgroundColor=none;fontStyle=1" parent="hMOcAWikp1ucdJKASKBj-22" vertex="1" connectable="0">
          <mxGeometry x="-0.1463" y="3" relative="1" as="geometry">
            <mxPoint x="1" y="-10" as="offset" />
          </mxGeometry>
        </mxCell>
        <mxCell id="hMOcAWikp1ucdJKASKBj-24" value="&lt;div&gt;Slave 2&lt;/div&gt;&lt;div&gt;&lt;br&gt;&lt;/div&gt;&lt;div&gt;&lt;br&gt;&lt;/div&gt;" style="sketch=0;aspect=fixed;html=1;points=[];align=center;image;fontSize=12;image=img/lib/mscae/Cache_Redis_Product.svg;imageBackground=none;fillStyle=auto;imageBorder=none;labelBackgroundColor=none;fontColor=#666666;fontStyle=1" parent="1" vertex="1">
          <mxGeometry x="480" y="288" width="50" height="42" as="geometry" />
        </mxCell>
        <mxCell id="hMOcAWikp1ucdJKASKBj-25" value="&lt;div&gt;Slave 3&lt;br&gt;&lt;/div&gt;&lt;div&gt;&lt;br&gt;&lt;/div&gt;&lt;div&gt;&lt;br&gt;&lt;/div&gt;" style="sketch=0;aspect=fixed;html=1;points=[];align=center;image;fontSize=12;image=img/lib/mscae/Cache_Redis_Product.svg;imageBackground=none;fillStyle=auto;imageBorder=none;labelBackgroundColor=none;fontColor=#666666;fontStyle=1" parent="1" vertex="1">
          <mxGeometry x="480" y="370" width="50" height="42" as="geometry" />
        </mxCell>
        <mxCell id="hMOcAWikp1ucdJKASKBj-26" value="&lt;div&gt;&lt;br&gt;&lt;/div&gt;&lt;div&gt;&lt;br&gt;&lt;/div&gt;" style="sketch=0;aspect=fixed;html=1;points=[];align=center;image;fontSize=12;image=img/lib/mscae/Cache_Redis_Product.svg;imageBackground=none;fillStyle=auto;imageBorder=none;labelBackgroundColor=none;fontColor=#666666;fontStyle=1;opacity=0;" parent="1" vertex="1">
          <mxGeometry x="570" y="294" width="50" height="42" as="geometry" />
        </mxCell>
      </root>
    </mxGraphModel>
  </diagram>
</mxfile>
